<svg xmlns="http://www.w3.org/2000/svg" width="600" height="400" viewBox="0 0 600 400"><rect width="100%" height="100%" fill="#D34516"/><path fill="#FFFFFF" d="M143.38 197.61h9.33q4.21 0 7.35-1.05 3.13-1.06 5.16-2.92t3.03-4.41q.99-2.55.99-5.6 0-6.11-4.02-9.38-4.02-3.28-12.29-3.28h-9.55zm27.64 12.43 20.09 29.64h-13.49q-3.82 0-5.55-3l-16.87-25.69q-.94-1.45-2.08-2.06t-3.36-.61h-6.38v31.36h-14.93v-80.25h24.48q8.16 0 14.01 1.69 5.86 1.69 9.6 4.75 3.75 3.05 5.52 7.29 1.78 4.25 1.78 9.36 0 4.05-1.19 7.65-1.2 3.61-3.44 6.55-2.25 2.94-5.55 5.16-3.31 2.22-7.52 3.5 1.44.83 2.66 1.97t2.22 2.69m61.99-27.3h13.71v56.94h-8.38q-2.72 0-3.44-2.5l-.94-4.55q-3.5 3.55-7.72 5.75-4.22 2.19-9.93 2.19-4.66 0-8.24-1.58-3.58-1.59-6.03-4.47-2.44-2.89-3.69-6.86-1.24-3.96-1.24-8.74v-36.18h13.7v36.18q0 5.22 2.42 8.08 2.41 2.86 7.24 2.86 3.55 0 6.66-1.59 3.11-1.58 5.88-4.35zm65.11 6.16-3.11 4.94q-.56.89-1.17 1.25t-1.55.36q-1 0-2.14-.56-1.14-.55-2.64-1.25-1.49-.69-3.41-1.25-1.91-.55-4.52-.55-4.05 0-6.36 1.72-2.3 1.72-2.3 4.49 0 1.84 1.19 3.09 1.2 1.24 3.17 2.19 1.97.94 4.46 1.69 2.5.75 5.08 1.64t5.08 2.02q2.5 1.14 4.47 2.89t3.16 4.19q1.2 2.44 1.2 5.88 0 4.11-1.47 7.58-1.48 3.47-4.36 5.99-2.89 2.53-7.13 3.94-4.25 1.42-9.8 1.42-2.94 0-5.74-.53-2.81-.53-5.39-1.47t-4.77-2.22-3.86-2.78l3.17-5.21q.61-.95 1.44-1.45.83-.49 2.11-.49 1.27 0 2.41.72t2.64 1.55 3.52 1.55q2.03.73 5.14.73 2.44 0 4.19-.59 1.75-.58 2.88-1.52 1.14-.95 1.67-2.19.53-1.25.53-2.59 0-1.99-1.2-3.27-1.19-1.28-3.16-2.22t-4.5-1.69q-2.52-.75-5.16-1.64-2.63-.89-5.16-2.08t-4.5-3.03q-1.97-1.83-3.16-4.49-1.19-2.67-1.19-6.44 0-3.5 1.39-6.66 1.38-3.16 4.07-5.52 2.7-2.36 6.72-3.78 4.02-1.41 9.3-1.41 5.88 0 10.71 1.94t8.05 5.11m29.91 51.67q-7.44 0-11.41-4.19-3.96-4.19-3.96-11.57V193h-5.83q-1.11 0-1.89-.72t-.78-2.16v-5.44l9.16-1.5 2.89-15.54q.28-1.11 1.05-1.72.78-.61 2-.61h7.1v17.93h15.21V193h-15.21v30.86q0 2.67 1.31 4.17 1.3 1.49 3.58 1.49 1.28 0 2.14-.3.86-.31 1.49-.64.64-.33 1.14-.64.5-.3 1-.3.61 0 1 .3.39.31.83.92l4.11 6.66q-3 2.49-6.88 3.77-3.89 1.28-8.05 1.28m68.32-31.19h25.53l-9.77-26.7q-.72-1.77-1.5-4.22-.77-2.44-1.55-5.27-.72 2.83-1.5 5.3t-1.5 4.3zm20.37-49.95 31.52 80.25H436.7q-1.94 0-3.16-.97-1.23-.97-1.84-2.42l-5.99-16.37h-33.24l-6 16.37q-.44 1.28-1.72 2.34-1.28 1.05-3.16 1.05h-11.66l31.58-80.25zm54.83 0v80.25h-14.98v-80.25z"/></svg>